<svg width="78" height="147" viewBox="0 0 78 147" fill="none" xmlns="http://www.w3.org/2000/svg">
<path d="M29.474 141.116C40.8942 138.097 48.183 128.396 45.7541 119.45C43.3251 110.504 32.0982 105.699 20.6781 108.719C9.25788 111.739 1.96903 121.44 4.39796 130.386C6.82689 139.332 18.0538 144.136 29.474 141.116Z" fill="black"/>
<path d="M46.2171 1.79248C46.2171 0.802513 45.4561 0 44.5174 0C43.5786 0 42.8176 0.802513 42.8176 1.79248V120.711C42.8176 121.701 43.5786 122.504 44.5174 122.504C45.4561 122.504 46.2171 121.701 46.2171 120.711V1.79248Z" fill="black"/>
<path d="M45.8747 0.749634C45.8747 0.749634 53.2584 12.1474 71.6077 42.1918C76.9561 50.9491 77.9175 60.7353 77.314 70.5339C76.0091 91.7189 74.676 91.3523 73.1202 91.3744C65.9144 91.4769 91.4103 51.1187 45.0623 32.6829L45.8747 0.749634Z" fill="black"/>
</svg>
