<svg width="287" height="287" viewBox="0 0 287 287" fill="none" xmlns="http://www.w3.org/2000/svg">
<circle cx="143.284" cy="148.545" r="118.193" stroke="black" stroke-width="5"/>
<circle cx="143.284" cy="27.8521" r="22.8764" fill="#FDFDFD" stroke="black" stroke-width="5"/>
<path d="M136.666 20.5557C138.199 20.5557 139.559 20.889 140.746 21.5557C141.933 22.209 142.846 23.1224 143.486 24.2957C144.139 25.469 144.466 26.7957 144.466 28.2757C144.466 29.7957 143.979 31.2024 143.006 32.4957C142.033 33.7757 140.819 34.7957 139.366 35.5557C137.926 36.3024 136.553 36.6757 135.246 36.6757C134.659 36.6757 134.066 36.6424 133.466 36.5757C132.466 36.509 131.699 36.4757 131.166 36.4757H127.826V35.1957L129.706 33.7157V22.8757L127.466 22.1957L128.186 20.7557H131.146C132.373 20.7557 133.573 20.7157 134.746 20.6357C135.626 20.5824 136.266 20.5557 136.666 20.5557ZM135.826 34.7357C136.626 34.7357 137.359 34.4957 138.026 34.0157C138.693 33.5357 139.213 32.8824 139.586 32.0557C139.973 31.2157 140.166 30.2757 140.166 29.2357C140.166 27.9957 139.979 26.869 139.606 25.8557C139.246 24.829 138.686 24.0157 137.926 23.4157C137.179 22.8024 136.246 22.4957 135.126 22.4957C134.606 22.4957 134.119 22.629 133.666 22.8957V34.3757C134.279 34.6024 134.993 34.7157 135.806 34.7157L135.826 34.7357ZM153.28 25.4557C154.293 25.4557 155.2 25.689 156 26.1557C156.8 26.609 157.42 27.2424 157.86 28.0557C158.313 28.8557 158.54 29.7424 158.54 30.7157C158.54 31.769 158.193 32.7557 157.5 33.6757C156.806 34.5957 155.933 35.329 154.88 35.8757C153.84 36.409 152.833 36.6757 151.86 36.6757C150.86 36.6757 149.96 36.449 149.16 35.9957C148.36 35.529 147.733 34.8957 147.28 34.0957C146.84 33.2957 146.62 32.4024 146.62 31.4157C146.62 30.349 146.966 29.3624 147.66 28.4557C148.353 27.5357 149.22 26.809 150.26 26.2757C151.3 25.729 152.306 25.4557 153.28 25.4557ZM152.12 27.9557C151.64 27.9557 151.266 28.169 151 28.5957C150.746 29.009 150.62 29.629 150.62 30.4557C150.62 31.5357 150.826 32.429 151.24 33.1357C151.666 33.829 152.26 34.1757 153.02 34.1757C153.513 34.1757 153.886 33.9624 154.14 33.5357C154.406 33.109 154.54 32.4824 154.54 31.6557C154.54 30.5757 154.326 29.689 153.9 28.9957C153.486 28.3024 152.893 27.9557 152.12 27.9557Z" fill="black"/>
<circle cx="236.434" cy="75.5103" r="22.8764" fill="#FDFDFD" stroke="black" stroke-width="5"/>
<path d="M237.78 84.1139H233.26L229.58 77.2539L228.72 76.7339L229.26 75.6539H230.14C230.793 75.6539 231.307 75.4339 231.68 74.9939C232.067 74.5539 232.26 73.9406 232.26 73.1539C232.26 72.2606 232.02 71.5339 231.54 70.9739C231.073 70.4006 230.387 70.1139 229.48 70.1139C228.907 70.1139 228.38 70.2806 227.9 70.6139V82.0339L230.16 82.6539L229.44 84.1139H222.06V82.8339L223.94 81.2139V70.4339L221.7 69.8339L222.42 68.3939H226.04C227.173 68.3939 228.3 68.3539 229.42 68.2739C230.22 68.2206 230.813 68.1939 231.2 68.1939C232.253 68.1939 233.187 68.3806 234 68.7539C234.827 69.1139 235.46 69.6139 235.9 70.2539C236.353 70.8806 236.58 71.5872 236.58 72.3739C236.58 73.2939 236.18 74.1539 235.38 74.9539C234.58 75.7406 233.587 76.3472 232.4 76.7739L234.08 77.2339L236.52 81.7539L238.52 82.6539L237.78 84.1139ZM246.107 73.1139C247.547 73.1139 248.661 73.6606 249.447 74.7539C250.247 75.8339 250.634 77.3606 250.607 79.3339H243.467C243.614 80.0406 243.887 80.6072 244.287 81.0339C244.687 81.4472 245.207 81.6539 245.847 81.6539C246.794 81.6539 248.174 81.2472 249.987 80.4339L250.587 81.6739L247.707 83.9939C246.867 84.2206 245.861 84.3339 244.687 84.3339C243.687 84.3339 242.787 84.1072 241.987 83.6539C241.187 83.1872 240.561 82.5539 240.107 81.7539C239.667 80.9539 239.447 80.0606 239.447 79.0739C239.447 78.0072 239.794 77.0206 240.487 76.1139C241.181 75.1939 242.047 74.4672 243.087 73.9339C244.127 73.3872 245.134 73.1139 246.107 73.1139ZM245.027 75.6139C244.481 75.6139 244.067 75.8006 243.787 76.1739C243.521 76.5339 243.374 77.0939 243.347 77.8539H246.907C246.827 77.0939 246.647 76.5339 246.367 76.1739C246.087 75.8006 245.641 75.6139 245.027 75.6139Z" fill="black"/>
<circle cx="254.692" cy="174.231" r="22.8764" fill="#FDFDFD" stroke="black" stroke-width="5"/>
<path d="M260.889 182.874H253.509V181.594L255.389 180.114V171.014L250.549 182.874H248.629L243.649 170.834V180.554L245.929 181.414L245.189 182.874H239.869V181.594L241.749 180.114V169.474L239.509 168.574L240.229 167.134H246.249L250.689 177.814L255.029 167.134H261.269V168.394L259.369 169.874V180.834L261.629 181.414L260.889 182.874ZM269.474 182.854H262.914V181.574L264.694 180.054V175.794L262.914 174.614V173.354L266.974 171.654H268.394V180.814L270.194 181.394L269.474 182.854ZM266.534 165.614C267.16 165.614 267.667 165.814 268.054 166.214C268.454 166.601 268.654 167.081 268.654 167.654C268.654 168.068 268.507 168.454 268.214 168.814C267.934 169.161 267.574 169.441 267.134 169.654C266.707 169.868 266.294 169.974 265.894 169.974C265.28 169.974 264.767 169.781 264.354 169.394C263.954 168.994 263.754 168.508 263.754 167.934C263.754 167.521 263.894 167.141 264.174 166.794C264.467 166.434 264.834 166.148 265.274 165.934C265.714 165.721 266.134 165.614 266.534 165.614Z" fill="black"/>
<circle cx="194.037" cy="251.288" r="22.8764" fill="#FDFDFD" stroke="black" stroke-width="5"/>
<path d="M195.161 249.072L193.901 249.612L191.341 245.912H186.821V251.032H188.981L190.441 248.872H191.721V254.832L190.261 255.572L188.901 252.732H186.821V257.732L190.401 258.452L189.681 259.912H180.981V258.632L182.861 257.152V246.272L180.621 245.632L181.341 244.192H193.601L195.161 243.832V249.072ZM207.078 259.912H202.298V258.172L200.038 259.952C199.771 260.059 199.438 260.112 199.038 260.112C197.718 260.112 196.764 259.792 196.178 259.152C195.591 258.499 195.298 257.719 195.298 256.812C195.298 256.292 195.458 255.779 195.778 255.272C196.098 254.765 196.551 254.299 197.138 253.872H202.298V253.792C202.298 253.099 202.104 252.585 201.718 252.252C201.344 251.905 200.844 251.732 200.218 251.732C199.298 251.732 198.011 252.052 196.358 252.692L195.758 251.452L198.518 249.232C199.224 249.005 200.058 248.892 201.018 248.892C202.591 248.892 203.811 249.245 204.678 249.952C205.558 250.659 205.998 251.685 205.998 253.032V257.752L207.798 258.452L207.078 259.912ZM200.178 257.112C200.804 257.112 201.511 256.859 202.298 256.352V255.332H199.158C199.011 255.572 198.938 255.832 198.938 256.112C198.938 256.419 199.044 256.665 199.258 256.852C199.484 257.025 199.791 257.112 200.178 257.112Z" fill="black"/>
<circle cx="92.5311" cy="251.288" r="22.8764" fill="#FDFDFD" stroke="black" stroke-width="5"/>
<path d="M83.7004 256.692C83.7004 256.292 83.5404 255.912 83.2204 255.552C82.9138 255.192 82.5338 254.865 82.0804 254.572C81.6271 254.265 80.9938 253.879 80.1804 253.412C79.1804 252.839 78.3804 252.352 77.7804 251.952C77.1804 251.539 76.6671 251.059 76.2404 250.512C75.8138 249.952 75.6004 249.339 75.6004 248.672C75.6004 248.005 75.9138 247.292 76.5404 246.532C77.1671 245.759 77.9338 245.112 78.8404 244.592C79.7604 244.059 80.6004 243.792 81.3604 243.792C82.2804 243.792 83.3538 243.892 84.5804 244.092C85.8204 244.292 86.7271 244.505 87.3004 244.732V249.252H85.0604C84.5538 248.172 83.9738 247.332 83.3204 246.732C82.6671 246.132 81.9871 245.832 81.2804 245.832C80.8138 245.832 80.4471 245.985 80.1804 246.292C79.9138 246.585 79.7804 246.965 79.7804 247.432C79.7804 247.859 79.9404 248.265 80.2604 248.652C80.5804 249.025 80.9738 249.372 81.4404 249.692C81.9204 249.999 82.5738 250.379 83.4004 250.832C84.3738 251.379 85.1538 251.852 85.7404 252.252C86.3404 252.652 86.8471 253.125 87.2604 253.672C87.6871 254.205 87.9004 254.799 87.9004 255.452C87.9004 256.119 87.5604 256.839 86.8804 257.612C86.2138 258.372 85.4004 259.019 84.4404 259.552C83.4804 260.072 82.6004 260.332 81.8004 260.332C80.8271 260.332 79.6804 260.232 78.3604 260.032C77.0404 259.832 76.0871 259.619 75.5004 259.392V254.852H77.7204C78.2671 255.932 78.9071 256.772 79.6404 257.372C80.3871 257.972 81.1404 258.272 81.9004 258.272C82.4471 258.272 82.8804 258.119 83.2004 257.812C83.5338 257.505 83.7004 257.132 83.7004 256.692ZM96.3843 248.892C97.3977 248.892 98.3043 249.125 99.1043 249.592C99.9043 250.045 100.524 250.679 100.964 251.492C101.418 252.292 101.644 253.179 101.644 254.152C101.644 255.205 101.298 256.192 100.604 257.112C99.911 258.032 99.0377 258.765 97.9843 259.312C96.9443 259.845 95.9377 260.112 94.9643 260.112C93.9643 260.112 93.0643 259.885 92.2643 259.432C91.4643 258.965 90.8377 258.332 90.3843 257.532C89.9443 256.732 89.7243 255.839 89.7243 254.852C89.7243 253.785 90.071 252.799 90.7643 251.892C91.4577 250.972 92.3243 250.245 93.3643 249.712C94.4043 249.165 95.411 248.892 96.3843 248.892ZM95.2243 251.392C94.7443 251.392 94.371 251.605 94.1043 252.032C93.851 252.445 93.7243 253.065 93.7243 253.892C93.7243 254.972 93.931 255.865 94.3443 256.572C94.771 257.265 95.3643 257.612 96.1243 257.612C96.6177 257.612 96.991 257.399 97.2443 256.972C97.511 256.545 97.6443 255.919 97.6443 255.092C97.6443 254.012 97.431 253.125 97.0043 252.432C96.591 251.739 95.9977 251.392 95.2243 251.392ZM109.51 259.912H102.95V258.632L104.73 257.112V246.592L102.95 245.412V244.132L107.01 242.452H108.43V257.872L110.23 258.452L109.51 259.912Z" fill="black"/>
<circle cx="50.134" cy="72.725" r="22.8764" fill="#FDFDFD" stroke="black" stroke-width="5"/>
<path d="M48.0612 78.1286C48.0612 77.7286 47.9012 77.3486 47.5812 76.9886C47.2745 76.6286 46.8945 76.302 46.4412 76.0086C45.9878 75.702 45.3545 75.3153 44.5412 74.8486C43.5412 74.2753 42.7412 73.7886 42.1412 73.3886C41.5412 72.9753 41.0278 72.4953 40.6012 71.9486C40.1745 71.3886 39.9612 70.7753 39.9612 70.1086C39.9612 69.442 40.2745 68.7286 40.9012 67.9686C41.5278 67.1953 42.2945 66.5486 43.2012 66.0286C44.1212 65.4953 44.9612 65.2286 45.7212 65.2286C46.6412 65.2286 47.7145 65.3286 48.9412 65.5286C50.1812 65.7286 51.0878 65.942 51.6612 66.1686V70.6886H49.4212C48.9145 69.6086 48.3345 68.7686 47.6812 68.1686C47.0278 67.5686 46.3478 67.2686 45.6412 67.2686C45.1745 67.2686 44.8078 67.422 44.5412 67.7286C44.2745 68.022 44.1412 68.402 44.1412 68.8686C44.1412 69.2953 44.3012 69.702 44.6212 70.0886C44.9412 70.462 45.3345 70.8086 45.8012 71.1286C46.2812 71.4353 46.9345 71.8153 47.7612 72.2686C48.7345 72.8153 49.5145 73.2886 50.1012 73.6886C50.7012 74.0886 51.2078 74.562 51.6212 75.1086C52.0478 75.642 52.2612 76.2353 52.2612 76.8886C52.2612 77.5553 51.9212 78.2753 51.2412 79.0486C50.5745 79.8086 49.7612 80.4553 48.8012 80.9886C47.8412 81.5086 46.9612 81.7686 46.1612 81.7686C45.1878 81.7686 44.0412 81.6686 42.7212 81.4686C41.4012 81.2686 40.4478 81.0553 39.8612 80.8286V76.2886H42.0812C42.6278 77.3686 43.2678 78.2086 44.0012 78.8086C44.7478 79.4086 45.5012 79.7086 46.2612 79.7086C46.8078 79.7086 47.2412 79.5553 47.5612 79.2486C47.8945 78.942 48.0612 78.5686 48.0612 78.1286ZM60.3451 81.3486H53.7851V80.0686L55.5651 78.5486V74.2886L53.7851 73.1086V71.8486L57.8451 70.1486H59.2651V79.3086L61.0651 79.8886L60.3451 81.3486ZM57.4051 64.1086C58.0317 64.1086 58.5384 64.3086 58.9251 64.7086C59.3251 65.0953 59.5251 65.5753 59.5251 66.1486C59.5251 66.562 59.3784 66.9486 59.0851 67.3086C58.8051 67.6553 58.4451 67.9353 58.0051 68.1486C57.5784 68.362 57.1651 68.4686 56.7651 68.4686C56.1517 68.4686 55.6384 68.2753 55.2251 67.8886C54.8251 67.4886 54.6251 67.002 54.6251 66.4286C54.6251 66.0153 54.7651 65.6353 55.0451 65.2886C55.3384 64.9286 55.7051 64.642 56.1451 64.4286C56.5851 64.2153 57.0051 64.1086 57.4051 64.1086Z" fill="black"/>
<circle cx="28.1616" cy="168.351" r="22.8764" fill="#FDFDFD" stroke="black" stroke-width="5"/>
<path d="M27.2462 176.994H14.2662V175.714L16.1462 174.234V163.254L13.9062 162.694L14.6262 161.254H22.0062V162.514L20.1062 163.994V175.254H24.4062L27.5462 170.754L28.8062 171.274V177.354L27.2462 176.994ZM42.0423 176.974H37.2623V175.234L35.0023 177.014C34.7356 177.121 34.4023 177.174 34.0023 177.174C32.6823 177.174 31.7289 176.854 31.1423 176.214C30.5556 175.561 30.2623 174.781 30.2623 173.874C30.2623 173.354 30.4223 172.841 30.7423 172.334C31.0623 171.828 31.5156 171.361 32.1023 170.934H37.2623V170.854C37.2623 170.161 37.0689 169.648 36.6823 169.314C36.3089 168.968 35.8089 168.794 35.1823 168.794C34.2623 168.794 32.9756 169.114 31.3223 169.754L30.7223 168.514L33.4823 166.294C34.1889 166.068 35.0223 165.954 35.9823 165.954C37.5556 165.954 38.7756 166.308 39.6423 167.014C40.5223 167.721 40.9623 168.748 40.9623 170.094V174.814L42.7623 175.514L42.0423 176.974ZM35.1423 174.174C35.7689 174.174 36.4756 173.921 37.2623 173.414V172.394H34.1223C33.9756 172.634 33.9023 172.894 33.9023 173.174C33.9023 173.481 34.0089 173.728 34.2223 173.914C34.4489 174.088 34.7556 174.174 35.1423 174.174Z" fill="black"/>
</svg>
