<?xml version="1.0" encoding="UTF-8" standalone="no"?>
<!-- Generator: Adobe Illustrator 26.1.0, SVG Export Plug-In . SVG Version: 6.00 Build 0) -->

<svg
   version="1.1"
   id="Layer_1"
   x="0px"
   y="0px"
   viewBox="0 0 449890.19 1901351.5"
   xml:space="preserve"
   width="449890.19"
   height="1901351.5"
   xmlns="http://www.w3.org/2000/svg"
   xmlns:svg="http://www.w3.org/2000/svg"><defs
   id="defs11" /> <g
   id="g11"
   transform="translate(-167344.73,-13.789)">           <path
   d="m 678.54,867.23 c 0,-123.93 -101.86,-200.44 -178.85,-200.44 -1.22,0 -2.45,0.02 -3.67,0.05 L 495.6,537.68 C 697.36,422.95 696.85,229.56 696.85,178.13 696.85,82.84 664.46,32.61 635.47,0.01 448.83,69.73 469.64,290.78 469.64,370.59 v 60.56 c -7.32,4.24 -14.54,8.31 -21.59,12.2 -119.7,66.19 -259.12,181.67 -259.12,345.02 0,164.3 114.06,281.65 269.92,281.65 3.64,0 7.23,-0.06 10.8,-0.15 v 84.65 l 0.47,63.92 c 0,71.98 -52.44,135.02 -117.13,135.02 -42.05,0 -67.12,-16.31 -81.42,-42.31 1.55,0.09 3.11,0.16 4.69,0.16 42,0 76.05,-34.05 76.05,-76.05 0,-42 -34.05,-76.05 -76.05,-76.05 -42,0 -76.05,34.05 -76.05,76.05 0,3.8 0.29,7.53 0.83,11.18 -0.08,1.3 -0.13,2.58 -0.13,3.84 0,44.12 40.62,128.62 152.34,128.62 91.07,0 144.58,-71.35 144.58,-160.54 l -0.49,-150.25 c 113.21,-11.67 181.2,-77.24 181.2,-200.88 z M 469.64,669.7 c -74.62,14.37 -141.76,80.76 -141.76,169.83 0,84.1 60.24,123.56 78.42,132.42 2.91,1.42 6.42,0.53 8.33,-2.09 l 0.34,-0.47 c 2.15,-2.96 1.52,-7.1 -1.41,-9.29 -46.18,-34.53 -45.31,-82.23 -45.31,-98.51 0,-41.49 41,-81.67 101.39,-84.77 v 267.27 c -2.16,0.06 -4.34,0.1 -6.57,0.1 -137.07,0 -228.14,-101.64 -228.14,-227.67 0,-88.75 50.85,-165.8 234.71,-264.81 z m 25.41,-299.29 c 0,-153.8 105.56,-264.04 156.48,-264.04 9.86,0 18.6,36.54 18.6,76.04 0,104.86 -89.63,180.61 -174.94,233.45 z m 1.33,407.25 c 77.54,8.5 109.4,68.62 109.4,124.3 0,35.48 -13.82,122.51 -108.54,139.37 z"
   id="path11" /> </g> </svg>
