<svg width="219" height="182" viewBox="0 0 219 182" fill="none" xmlns="http://www.w3.org/2000/svg">
<path d="M39.7677 142.116C51.1878 139.097 58.4767 129.396 56.0478 120.45C53.6188 111.504 42.3919 106.699 30.9717 109.719C19.5516 112.739 12.2627 122.44 14.6917 131.386C17.1206 140.332 28.3475 145.136 39.7677 142.116Z" fill="black"/>
<path d="M56.5109 2.79248C56.5109 1.80251 55.7499 1 54.8111 1C53.8724 1 53.1114 1.80251 53.1114 2.79248V121.711C53.1114 122.701 53.8724 123.504 54.8111 123.504C55.7499 123.504 56.5109 122.701 56.5109 121.711V2.79248Z" fill="black"/>
<path d="M56.1684 1.74963C56.1684 1.74963 63.552 13.1474 81.9014 43.1918C87.2498 51.9491 88.2112 61.7353 87.6076 71.5339C86.3028 92.7189 84.9697 92.3523 83.4139 92.3744C76.2081 92.4769 101.704 52.1187 55.356 33.6829L56.1684 1.74963Z" fill="black"/>
<path d="M170.059 141.116C181.479 138.097 188.768 128.396 186.339 119.45C183.91 110.504 172.683 105.699 161.263 108.719C149.842 111.739 142.554 121.44 144.983 130.386C147.411 139.332 158.638 144.136 170.059 141.116Z" fill="black"/>
<path d="M186.802 1.79248C186.802 0.802513 186.041 0 185.102 0C184.163 0 183.402 0.802513 183.402 1.79248V120.711C183.402 121.701 184.163 122.504 185.102 122.504C186.041 122.504 186.802 121.701 186.802 120.711V1.79248Z" fill="black"/>
<path d="M186.459 0.749634C186.459 0.749634 193.843 12.1474 212.192 42.1918C217.541 50.9491 218.502 60.7353 217.899 70.5339C216.594 91.7189 215.261 91.3523 213.705 91.3744C206.499 91.4769 231.995 51.1187 185.647 32.6829L186.459 0.749634Z" fill="black"/>
<path d="M69.3162 106.863H2.46665C1.10436 106.863 0 108.028 0 109.464V113.806C0 115.242 1.10436 116.407 2.46665 116.407H69.3162C70.6785 116.407 71.7829 115.242 71.7829 113.806V109.464C71.7829 108.028 70.6785 106.863 69.3162 106.863Z" fill="black"/>
<path d="M196.316 105.863H129.467C128.104 105.863 127 107.028 127 108.464V112.806C127 114.242 128.104 115.407 129.467 115.407H196.316C197.679 115.407 198.783 114.242 198.783 112.806V108.464C198.783 107.028 197.679 105.863 196.316 105.863Z" fill="black"/>
<path d="M32.9385 159.216C29.5141 158.066 27.1604 162.256 30.3467 163.958C58.6308 179.065 109.052 195.085 168.186 165.023C171.452 163.363 169.027 158.82 165.543 159.952C109.727 178.086 61.3642 168.762 32.9385 159.216Z" fill="black"/>
</svg>
